<svg width="160" height="160" viewBox="0 0 160 160" fill="none" xmlns="http://www.w3.org/2000/svg">
<path d="M92.5977 0.243652C102.632 0.218254 113.478 -0.593289 123.398 0.896973C129.333 1.78922 134.831 3.55798 139.962 6.71631C149.436 12.5488 155.747 22.0791 158.212 32.8735C160.292 41.968 160.563 113.775 158.998 124.478C158.176 130.318 156.131 135.922 152.993 140.904C145.756 152.409 136.203 156.814 123.591 159.589C103.112 160.08 78.0539 158.871 58.1924 159.826C5.50208 162.365 -2.27936 137.008 0.483398 90.9536C2.55224 56.4589 -11.4535 7.4387 38.8691 0.414551L92.5977 0.243652ZM92.1348 93.0308C96.4958 84.8397 83.508 79.4654 76.3584 79.9644C72.7224 81.9511 67.5303 85.449 66.1318 89.5259C67.7925 96.1103 77.4239 94.393 82.8779 94.146C85.9371 94.2362 89.8273 94.7811 92.1348 93.0308Z" fill="#C3EA2E"/>
<path d="M58.9814 25.7056C147.443 19.3977 129.472 51.1272 131.596 123.812C131.675 126.412 131.457 129.092 130.102 131.386C126.37 133.689 104.903 134.634 103.653 131.307C97.2118 114.101 107.753 73.5402 98.0596 58.5804C89.7737 52.5089 61.4287 51.0169 58.9386 65.2263C56.1653 81.0643 58.6239 99.2648 58.2813 115.52C58.1808 120.283 60.0215 131.272 53.6105 133.058C48.9859 133.251 34.1631 134.284 30.722 131.815C27.281 129.346 28.2468 100.555 28.4198 96.3717C29.6251 67.234 20.8725 33.5371 58.9814 25.7056Z" fill="white"/>
<path d="M63.3428 98.7816C71.1829 98.7895 94.0652 95.3264 96.2065 103.249C95.5335 107.114 94.3798 108.52 92.2471 111.857C78.9618 123.383 65.4492 115.607 63.3428 98.7816Z" fill="white"/>
</svg>
