<svg preserveAspectRatio="none" width="100%" height="100%" overflow="visible" style="display: block;" viewBox="0 0 60 60" fill="none" xmlns="http://www.w3.org/2000/svg">
<g id="icon-home">
<path id="Vector" d="M30 9.25C31.0182 9.25 31.9115 9.54875 32.6973 10.1475L32.7002 10.1504L47.7041 21.4033C48.2637 21.8137 48.7031 22.3346 49.0234 22.9736C49.3435 23.6122 49.5015 24.2856 49.5 24.999V47.5C49.5 48.7411 49.0636 49.7917 48.1768 50.6787C47.2898 51.5657 46.24 52.0014 45.001 52H37.5C36.9179 52 36.4541 51.808 36.0742 51.4268C35.7409 51.0923 35.5526 50.6945 35.5098 50.2109L35.5 49.999V37.5C35.5 36.6655 35.2115 35.943 34.6328 35.3662C34.055 34.7904 33.3333 34.502 32.501 34.5H27.5C26.6655 34.5 25.943 34.7885 25.3662 35.3672C24.7904 35.945 24.502 36.6667 24.5 37.499V50C24.5 50.582 24.3084 51.047 23.9268 51.4287C23.545 51.8104 23.0807 52.0014 22.501 52H15C13.7585 52 12.7085 51.5639 11.8232 50.6787C10.9936 49.8489 10.5584 48.8736 10.5059 47.7305L10.5 47.499V25C10.5 24.2862 10.6593 23.6125 10.9795 22.9736C11.2998 22.3346 11.7372 21.8126 12.2949 21.4023L12.2959 21.4033L27.2998 10.1504L27.3027 10.1475C28.0885 9.54875 28.9818 9.25 30 9.25Z" fill="var(--fill-0, #4D4D4D)" stroke="var(--stroke-0, #767676)"/>
</g>
</svg>
