<svg preserveAspectRatio="none" width="100%" height="100%" overflow="visible" style="display: block;" viewBox="0 0 100 100" fill="none" xmlns="http://www.w3.org/2000/svg">
<g id="stash:credit-card-light">
<path id="Vector" d="M58.1665 60.4167C58.1665 59.3116 58.6055 58.2518 59.3869 57.4704C60.1683 56.689 61.2281 56.25 62.3332 56.25H74.8332C75.9382 56.25 76.998 56.689 77.7795 57.4704C78.5609 58.2518 78.9998 59.3116 78.9998 60.4167C78.9998 61.5217 78.5609 62.5815 77.7795 63.3629C76.998 64.1443 75.9382 64.5833 74.8332 64.5833H62.3332C61.2281 64.5833 60.1683 64.1443 59.3869 63.3629C58.6055 62.5815 58.1665 61.5217 58.1665 60.4167Z" fill="var(--fill-0, #292D30)"/>
<path id="Vector_2" d="M72.6834 21H27.3166C24.7662 21 22.7051 21 21.0441 21.1201C19.3265 21.2444 17.8207 21.5054 16.4279 22.1269C14.2132 23.12 12.4127 24.7052 11.2846 26.655C10.5788 27.8813 10.2823 29.207 10.1412 30.715C10.0141 32.02 10 33.5943 10 35.5V63.7584C10 66.0039 10 67.8184 10.1365 69.2809C10.2776 70.793 10.5741 72.1187 11.2799 73.345C12.4088 75.2933 14.2092 76.8769 16.4232 77.869C17.816 78.4946 19.3218 78.7556 21.0346 78.8799C22.7051 79 24.7662 79 27.3166 79H72.6881C75.2385 79 77.2996 79 78.9607 78.8799C80.6782 78.7556 82.184 78.4946 83.5768 77.869C85.7891 76.8762 87.5877 75.2926 88.7154 73.345C89.4259 72.1187 89.7224 70.793 89.8635 69.285C90 67.8143 90 66.0039 90 63.7584V35.5C90 33.5943 89.9859 32.02 89.8635 30.7191C89.7224 29.207 89.4259 27.8813 88.7154 26.655C87.5885 24.7058 85.7898 23.1207 83.5768 22.1269C82.184 21.5054 80.6782 21.2444 78.9654 21.1201C77.2902 21 75.2338 21 72.6834 21ZM85.2897 35.5H14.7056C14.7056 33.5819 14.7197 32.1774 14.828 31.0547C14.9409 29.8036 15.1573 29.0827 15.4726 28.5359C16.1495 27.3655 17.2302 26.4141 18.5595 25.8181C19.1806 25.5406 19.9994 25.35 21.4205 25.2506C22.8745 25.1429 24.738 25.1429 27.4107 25.1429H72.5845C75.2573 25.1429 77.1255 25.1429 78.5748 25.2506C79.9959 25.35 80.8147 25.5406 81.4358 25.8181C82.7651 26.4141 83.8458 27.3655 84.5227 28.5359C84.8379 29.0827 85.0544 29.8036 85.1673 31.0547C85.2756 32.1774 85.2897 33.5819 85.2897 35.5ZM14.7056 43.7857H85.2897V63.6714C85.2897 66.0246 85.2897 67.6693 85.1673 68.9453C85.0544 70.1964 84.8379 70.9173 84.5227 71.4641C83.8458 72.6345 82.7651 73.5859 81.4358 74.1819C80.8147 74.4594 79.9959 74.65 78.5748 74.7494C77.1255 74.8571 75.2573 74.8571 72.5845 74.8571H27.4107C24.738 74.8571 22.8745 74.8571 21.4205 74.7494C19.9994 74.65 19.1806 74.4594 18.5595 74.1819C17.2302 73.5859 16.1495 72.6345 15.4726 71.4641C15.1573 70.9173 14.9409 70.1964 14.828 68.9453C14.7056 67.6693 14.7056 66.0246 14.7056 63.6714V43.7857Z" fill="var(--fill-0, #292D30)"/>
</g>
</svg>
