<svg preserveAspectRatio="none" width="100%" height="100%" overflow="visible" style="display: block;" viewBox="0 0 200 68" fill="none" xmlns="http://www.w3.org/2000/svg">
<g id="ASAK LOGO">
<path id="Vector" d="M62.7659 6.67139C63.4755 6.55294 66.8062 6.60503 67.6371 6.60611L77.6557 6.60755C78.1894 11.3216 78.6157 10.2753 83.0013 10.6399C83.471 11.7964 83.9348 12.9741 84.4545 14.1072C85.5227 14.2445 86.5938 14.3591 87.6669 14.4507C87.0093 19.3159 86.9145 17.9284 90.9063 20.2366L91.9224 23.141C91.3236 22.6347 90.6255 21.9462 90.0423 21.3998C87.89 20.9727 87.1382 20.6612 85.6137 19.1617C78.5699 19.337 71.339 19.062 64.2943 19.2456C63.8341 19.2577 62.7738 20.1386 62.6127 20.6112C61.1086 25.0276 65.5432 24.5287 68.3104 24.5249L75.887 24.5077C77.4367 24.505 78.9873 24.5072 80.5365 24.5133C86.6742 24.5378 91.867 28.457 93.7291 34.3102C94.9751 38.1928 94.6281 42.4136 92.7667 46.0389C90.8832 49.7027 87.9125 52.1157 84.0387 53.368C83.1368 53.6588 81.7724 53.8479 80.8217 53.8582C72.1519 53.953 63.477 53.875 54.806 53.8957C53.7706 53.8982 52.4791 53.9108 51.4988 53.5669C51.2237 53.3031 51.1178 52.9086 51.0376 52.5458C50.7383 51.1918 50.6748 42.3322 51.2623 41.5287C51.5399 41.149 52.0874 40.9714 52.5343 40.912C54.3983 40.6642 56.7338 40.8726 58.6433 40.8728L72.4267 40.8784C74.7483 40.8799 77.0511 40.906 79.382 40.8412C81.7619 40.8792 82.477 37.3451 80.0988 36.6829C78.724 36.3 76.9616 36.4529 75.5169 36.4567L67.5678 36.4738C65.6882 36.4768 63.336 36.5655 61.5333 36.2458C59.1428 35.8191 56.8976 34.7954 55.004 33.2691C51.8941 30.7508 50.0754 26.9549 49.6715 22.9968C49.2499 18.9891 50.445 14.9789 52.9894 11.863C55.4227 8.88482 58.9456 7.01404 62.7659 6.67139Z" fill="var(--fill-0, #292D30)"/>
<path id="Vector_2" d="M54.627 43.5614C56.3175 43.5464 58.1073 43.4643 59.781 43.6168C61.006 43.7313 61.032 45.869 60.9656 46.7905C60.8555 48.3183 61.4232 50.204 59.926 51.07C58.5871 51.088 55.4959 51.203 54.3671 50.9688C52.9924 50.6835 53.4295 45.6005 53.6555 44.4852C53.7512 44.0125 54.2168 43.7628 54.627 43.5614Z" fill="var(--fill-0, #B5E30F)"/>
<path id="Vector_3" d="M114.304 6.55242C119.166 6.36151 124.094 6.62536 128.985 6.51122C135.723 6.35409 141.543 10.7738 143.068 17.4141C143.487 19.2388 143.362 21.7665 143.363 23.6749C143.372 32.7754 143.365 41.8795 143.357 50.98C143.235 52.4761 143.536 53.7673 141.594 53.8708C138.917 54.0135 136.202 53.8274 133.518 53.9069C133.032 53.9328 131.92 53.5465 131.812 52.9889C131.476 51.2641 131.613 48.9795 131.617 47.2302L131.628 29.8743C131.628 27.4848 131.697 24.7618 131.557 22.3763C131.509 21.5681 130.938 20.793 130.416 20.1952L130.318 20.1198C129.84 19.7568 129.015 19.2383 128.336 19.1928C124.486 18.9888 120.346 19.034 116.496 19.1432C112.004 19.2705 112.983 26.5523 112.986 29.5623L113 44.7394C113.001 45.9428 113.3 52.4961 112.527 53.3887C111.718 54.32 107.621 53.7858 106.266 53.8791C105.458 53.9347 103.776 53.9368 102.891 53.8815C101.682 53.8341 101.256 53.0272 101.241 51.9967C101.165 50.3294 101.2 48.6673 101.204 47.0037L101.218 37.7122L101.214 25.5993C101.214 23.3387 101.076 20.0883 101.473 17.9701C101.935 15.6166 102.979 13.4178 104.51 11.5767C107.03 8.551 110.424 6.90358 114.304 6.55242Z" fill="var(--fill-0, #B5E30F)"/>
<path id="Vector_4" d="M13.0376 6.55139C17.548 6.39365 22.1154 6.57941 26.6293 6.5054C29.3803 6.46036 31.2836 6.51271 33.9487 7.21766C33.925 8.60925 34.0562 10.2739 34.0784 11.7164L35.5705 12.9488C35.7245 13.9124 35.975 15.3527 36.2627 16.2465C37.3139 16.6155 38.6654 16.9648 39.7544 17.2772C39.6947 18.3432 39.4518 19.6167 39.3586 20.7827C40.4344 21.5889 41.3427 22.2496 42.4742 22.9896C42.6736 23.8776 43.0055 24.9778 43.2484 25.8728L44.6909 26.2659L44.6934 43.9906C44.69 46.6718 44.7333 49.3557 44.6935 52.0342C44.6757 53.222 43.9831 53.7954 42.8403 53.8458C41.3253 53.8515 39.6203 53.9385 38.12 53.8368C36.9599 53.7581 32.3346 54.4019 32.0099 52.964C31.6022 51.1585 31.7631 48.6289 31.767 46.7265L31.7732 30.5726C31.7759 27.9702 31.8783 25.0894 31.6761 22.5003C31.6119 21.679 31.323 21.1892 30.8558 20.5353C29.2917 18.9553 27.6306 18.9345 25.5231 19.0357C22.2513 19.2594 18.5351 18.7403 15.3379 19.1866C11.3037 19.7496 12.1815 25.6773 12.1836 28.54L12.1964 43.9195C12.2014 46.5278 12.24 49.1653 12.1662 51.7591C12.1359 52.8268 11.7729 53.724 10.6663 53.8039C8.72006 53.9446 6.70521 53.8308 4.75225 53.8362C3.7124 53.8391 2.72703 53.9163 1.70005 53.8374C0.431624 53.7016 0.0829788 53.0099 0.0410078 51.8345C-0.0230218 50.0413 0.00845561 48.2591 0.0110788 46.473L0.0277717 36.1163L0.017161 24.6102C0.0139417 19.4733 -0.416976 15.4932 3.24475 11.3649C5.89286 8.37941 9.08528 6.85069 13.0376 6.55139Z" fill="var(--fill-0, #B5E30F)"/>
<path id="Vector_5" d="M149.819 6.65103C151.47 6.5418 153.59 6.63666 155.265 6.6078C156.535 6.586 160.617 6.3897 161.56 6.94542C162.423 8.00645 162.122 11.554 162.118 13.0109L162.102 24.1525C162.096 30.6509 161.349 34.7743 169.649 34.3696C170.044 34.3503 170.547 34.366 170.953 34.3639L176.888 34.3187C178.865 34.3046 180.187 34.0787 181.459 35.8494C183.743 39.0262 186.174 42.1433 188.355 45.3901C189.242 46.9669 188.415 49.3862 188.731 51.0148C189.602 55.4967 183.295 53.3362 180.685 53.8056C179.619 53.9975 176.796 54.0092 175.86 53.2142C174.051 50.7109 172.006 48.1808 170.159 45.6946C169.67 45.0378 167.591 42.2525 167.102 41.7882C166.531 41.2348 165.757 40.9416 164.964 40.977C159.771 41.2364 163.414 50.6171 161.689 53.3444C161.084 54.2992 152.33 53.5959 150.87 53.8449C150.318 53.9391 149.33 53.6355 148.921 53.1971C148.493 51.8807 148.659 43.4174 148.659 41.5933L148.66 22.0038L148.681 11.9653C148.684 10.617 148.444 8.84734 148.823 7.53432C148.959 7.06363 149.397 6.84242 149.819 6.65103Z" fill="var(--fill-0, #292D30)"/>
<path id="Vector_6" d="M177.677 6.65485C180.207 6.50993 183.857 6.60838 186.475 6.60946L184.21 11.3782C184.495 12.2345 184.762 13.0967 185.01 13.9646C183.843 15.0198 182.928 16.6822 182.037 18.058C182.271 19.0227 182.846 20.2659 183.248 21.2077C182.566 21.6205 181.425 22.0687 180.659 22.3948C180.85 23.1438 181.029 23.8961 181.194 24.6511C179.004 26.8405 176.789 29.2119 174.645 31.4585C174.555 31.5267 173.991 31.9006 173.851 31.9307C171.926 32.3393 167.852 32.304 165.947 31.9048C165.366 31.7833 164.589 30.8489 164.455 30.5034C163.989 29.2971 163.983 20.5983 164.534 19.9532C168.112 15.755 172.661 11.285 176.464 7.17033C176.64 6.98098 177.45 6.72875 177.677 6.65485Z" fill="var(--fill-0, #292D30)"/>
<path id="Vector_7" d="M167.859 21.37C169.825 21.3193 171.933 21.2676 173.883 21.4247C174.871 21.5043 174.867 24.067 174.8 24.8157C174.64 26.5904 175.403 28.8121 173.509 29.7472C171.695 29.86 169.584 29.8351 167.771 29.713C166.589 29.6335 166.466 27.2566 166.544 26.4011C166.713 24.5017 165.948 22.5007 167.859 21.37Z" fill="var(--fill-0, #B5E30F)"/>
<path id="Vector_8" d="M20.7209 32.7597C23.2699 32.653 26.1358 32.7192 28.7077 32.7243C28.7145 34.6526 28.7698 36.6059 28.7037 38.5325C28.4405 46.2136 21.8369 45.0814 16.4594 45.0569C17.7522 44.745 18.3238 44.5827 19.4743 43.9254C21.7853 42.4498 22.2214 40.7706 22.3658 38.1913C18.4471 38.1708 16.98 40.0782 15.6907 43.4846C15.5894 38.8501 14.9148 33.9862 20.7209 32.7597Z" fill="var(--fill-0, #B5E30F)"/>
<path id="Vector_9" d="M115.178 40.312C119.764 40.2488 124.418 40.2836 129.009 40.2796C129.038 42.7043 128.387 44.1473 126.866 45.915C125.595 47.0613 124.1 47.7829 122.371 47.8538C120.574 47.9298 118.82 47.2813 117.501 46.0527C115.773 44.4479 115.283 42.5619 115.178 40.312Z" fill="var(--fill-0, #292D30)"/>
<path id="Vector_10" d="M121.89 31.7003C125.643 31.5046 127.8 34.5108 127.934 38.0096L122.455 38.0046L116.223 37.9986C116.231 34.4552 118.38 32.048 121.89 31.7003Z" fill="var(--fill-0, #B5E30F)"/>
<path id="Vector_11" d="M97.1225 62.5273C97.107 62.1368 97.0605 61.7528 97.1965 61.3884C97.5697 61.1459 97.7211 61.2348 98.2469 61.228C98.2207 61.6587 98.2612 62.0632 97.9977 62.3671C97.6126 62.4922 97.5279 62.5018 97.1225 62.5273Z" fill="var(--fill-0, #26292B)"/>
<path id="Subtract" d="M97.1964 61.3885C97.5696 61.146 97.7213 61.2352 98.2471 61.2283C98.3544 62.1136 98.3649 66.798 98.2374 67.6404C98.0047 67.8271 97.4727 67.8425 97.1973 67.7391L97.1202 67.3494C96.7064 67.3412 96.6193 67.6941 96.295 67.7889C91.7822 69.1085 92.0119 60.6581 97.0215 63.3358C97.1825 63.0684 97.1341 62.8483 97.1221 62.5272C97.1066 62.1368 97.0605 61.7529 97.1964 61.3885ZM96.6788 64.2537C96.2877 63.9033 95.7401 63.7913 95.2442 63.9598C94.491 64.216 94.0818 65.0321 94.3272 65.7918C94.5728 66.5515 95.3803 66.9723 96.1397 66.7361C96.6392 66.5806 97.0189 66.1669 97.1299 65.6531C97.2408 65.1393 97.0687 64.6043 96.6788 64.2537Z" fill="var(--fill-0, #292D30)"/>
<path id="Subtract_2" d="M74.2825 62.8091C75.4723 62.7323 75.3568 62.7936 76.4583 63.2808C76.9729 63.2153 76.9843 62.5505 77.7395 62.9204C77.8287 63.7383 77.7798 66.8055 77.7346 67.7017L77.552 67.814C77.1005 67.8228 77.0119 67.8969 76.6565 67.7026L76.551 67.1841C75.2598 68.3802 73.5249 68.1967 72.7629 66.5503C72.439 65.8581 72.4078 65.0636 72.677 64.3481C73.0134 63.4655 73.4804 63.1819 74.2825 62.8091ZM76.4993 64.8276C76.2217 64.0646 75.3802 63.6726 74.6213 63.9536C73.8657 64.2335 73.4778 65.0757 73.7542 65.8354C74.0307 66.5951 74.8672 66.9866 75.6243 66.7114C76.3846 66.4349 76.7768 65.5907 76.4993 64.8276Z" fill="var(--fill-0, #292D30)"/>
<path id="Subtract_3" d="M86.8049 62.8006C87.4077 62.739 87.782 62.7176 88.3196 63.0194C89.4437 63.6506 88.9572 63.1548 89.343 62.868C89.6777 62.8595 89.9681 62.8104 90.2473 62.9705C90.2647 64.0193 90.5349 67.0544 90.0276 67.7342C89.608 67.8743 89.7831 67.8529 89.2766 67.7157C89.1947 67.5712 89.1767 67.537 89.0647 67.4207L88.9817 67.3358C86.9889 68.8791 85.4753 67.5223 84.9465 65.4139C85.2278 63.9813 85.4521 63.4359 86.8049 62.8006ZM89.0247 64.8192C88.7493 64.08 87.9399 63.6937 87.1956 63.9461C86.6921 64.1169 86.321 64.5495 86.2278 65.075C86.1346 65.6005 86.3336 66.1356 86.7473 66.4705C87.1611 66.8053 87.7237 66.8864 88.2151 66.6834C88.9415 66.383 89.2998 65.5583 89.0247 64.8192Z" fill="var(--fill-0, #292D30)"/>
<path id="Subtract_4" d="M132.35 62.8394C133.73 62.4712 135.149 63.2926 135.522 64.6772C135.896 66.0619 135.085 67.4899 133.709 67.8726C132.323 68.2577 130.888 67.4362 130.511 66.0415C130.136 64.6468 130.96 63.2105 132.35 62.8394ZM134.363 64.8569C134.105 64.1381 133.333 63.7461 132.605 63.9644C132.096 64.1166 131.712 64.5383 131.609 65.061C131.504 65.5838 131.697 66.1216 132.109 66.4585C132.52 66.7952 133.083 66.8761 133.572 66.6685C134.271 66.3709 134.619 65.5758 134.363 64.8569Z" fill="var(--fill-0, #292D30)"/>
<path id="Subtract_5" d="M54.8843 61.3512C55.2909 61.3303 55.8123 61.2476 56.1226 61.4615C56.5206 62.1356 58.6692 67.356 58.5825 67.7985C56.6705 68.31 57.7672 66.6309 56.4067 66.4742L54.0767 66.4977C53.9077 66.9096 53.7035 67.5364 53.3872 67.8102C53.0297 67.8045 52.6436 67.8444 52.3501 67.6735C52.6268 66.5845 54.3699 62.6071 54.8843 61.3512ZM55.436 62.8678C55.2073 63.4321 54.5866 64.6487 54.6206 65.1119C54.8707 65.6016 55.2974 65.4517 55.811 65.4225L56.2661 65.3942C56.5107 64.9355 55.735 63.1123 55.436 62.8678Z" fill="var(--fill-0, #292D30)"/>
<path id="Subtract_6" d="M107.758 61.3148C108.214 61.2898 108.407 61.2607 108.855 61.3656C109.207 61.6849 111.175 66.8746 111.455 67.6644C111.275 67.8915 111.196 67.8852 110.902 67.9711C109.7 67.6055 110.363 66.5729 109.228 66.4818L106.891 66.4926C106.727 66.9036 106.526 67.5561 106.211 67.8158C105.86 67.8075 105.465 67.8441 105.182 67.6732C105.423 66.6338 107.245 62.5072 107.758 61.3148ZM108.274 62.8715C108.053 63.4131 107.436 64.6385 107.485 65.098C107.783 65.6034 108.189 65.447 108.752 65.4193L109.137 65.3881C109.308 64.8786 108.638 63.2187 108.274 62.8715Z" fill="var(--fill-0, #292D30)"/>
<path id="Vector_12" d="M67.228 61.1422C68.2905 61.0189 70.1784 61.8366 69.7334 63.1248C69.0392 63.3436 68.2692 62.4178 67.5842 62.2221C67.0453 62.0682 66.4141 62.4546 66.3166 63.0074C66.9175 64.2767 71.6328 64.1031 69.6974 66.9526C69.1257 67.7942 68.4437 67.8268 67.5175 67.9805C66.422 67.8366 64.4841 67.2334 65.1392 65.733C66.5072 65.0433 66.5309 68.0057 68.5094 66.5344C68.7584 66.3493 68.7647 66.0738 68.7801 65.8221C68.2568 64.7831 65.4069 65.0055 65.1145 63.3808C64.8415 61.8629 65.9789 61.3642 67.228 61.1422Z" fill="var(--fill-0, #292D30)"/>
<path id="Vector_13" d="M35.5301 63.7856C37.0846 63.7468 44.4726 63.466 45.4898 64.0655C45.7703 64.2308 45.7921 64.3807 45.8654 64.6726C45.7743 65.0826 45.6274 65.1693 45.3206 65.4401C43.8317 65.4396 36.0871 65.6324 35.2377 65.2169C34.7074 64.6063 34.9792 64.2478 35.5301 63.7856Z" fill="var(--fill-0, #B5E30F)"/>
<path id="Vector_14" d="M155.164 63.7841C156.655 63.7514 164.131 63.4831 165.027 64.0551C165.308 64.2342 165.323 64.379 165.379 64.6805C165.297 65.0572 165.129 65.1717 164.856 65.433C163.527 65.444 155.468 65.6838 154.859 65.1931C154.676 65.0463 154.617 64.8756 154.626 64.6391C154.641 64.2579 154.905 64.0198 155.164 63.7841Z" fill="var(--fill-0, #B5E30F)"/>
<path id="Vector_15" d="M119.664 66.1475C119.664 66.68 119.759 67.2871 119.523 67.6834C119.175 67.856 118.98 67.808 118.599 67.7754L118.465 67.6064C118.363 66.9209 118.298 61.8389 118.515 61.3685C118.891 61.2259 119.054 61.2655 119.443 61.303C119.82 61.8551 119.652 63.8207 119.629 64.5893L122.299 61.3222L123.821 61.3088C123.191 62.0451 122.026 63.1992 121.628 64.0719C121.534 64.2773 121.784 64.5544 121.928 64.7798L122.427 65.5039C121.887 65.6356 121.642 65.6214 121.084 65.621L120.675 64.9503L119.664 66.1475Z" fill="var(--fill-0, #292D30)"/>
<path id="Vector_16" d="M120.675 64.9503L120.627 64.9315L120.624 64.8449C121.082 64.837 121.472 64.8153 121.928 64.7797L122.427 65.5038C121.887 65.6356 121.642 65.6213 121.084 65.621L120.675 64.9503Z" fill="var(--fill-0, #26292B)"/>
<path id="Vector_17" d="M144.725 65.4324C144.718 64.6928 144.574 61.61 144.91 61.2406C145.443 61.218 145.263 61.1613 145.672 61.3869C146.165 62.112 145.888 64.1055 145.891 65.1022C146.484 64.3804 147.099 63.6036 147.706 62.9005L149.158 62.909L147.456 64.7977C148.049 65.7511 148.681 66.7326 149.243 67.7014C149.025 67.8823 148.301 67.8346 147.96 67.8273C147.804 67.5593 147.141 66.4874 147.117 66.2664L146.774 65.8241C146.3 65.77 146.094 66.2504 145.824 66.6287C145.985 67.2266 146.025 67.4853 145.567 67.8928C145.172 67.9476 145.336 67.9695 144.915 67.7048C144.627 67.1803 144.729 67.1461 144.727 66.4643L144.725 65.4324Z" fill="var(--fill-0, #292D30)"/>
<path id="Vector_18" d="M144.725 65.4324C145.403 65.4276 146.362 65.335 146.933 65.6023C147.148 65.8857 147.171 65.8763 147.117 66.2664L146.774 65.8241C146.3 65.77 146.094 66.2504 145.824 66.6287C145.985 67.2266 146.025 67.4853 145.567 67.8928C145.172 67.9476 145.336 67.9695 144.915 67.7048C144.627 67.1803 144.729 67.1461 144.727 66.4643L144.725 65.4324Z" fill="var(--fill-0, #26292B)"/>
<path id="Vector_19" d="M144.727 66.4643C145.14 66.3805 145.451 66.4136 145.791 66.6865L145.824 66.6288C145.985 67.2266 146.025 67.4853 145.567 67.8928C145.172 67.9476 145.336 67.9696 144.915 67.7049C144.627 67.1803 144.729 67.1462 144.727 66.4643Z" fill="var(--fill-0, #292D30)"/>
<path id="Vector_20" d="M185.418 16.4104C186.508 16.4131 187.512 17.2796 188.393 17.8612C189.697 18.7218 188.383 19.6818 187.682 20.462C187.37 20.8644 187.092 21.2648 186.599 21.3892C185.209 21.1336 185.229 18.7148 184.971 17.5896C184.857 17.1025 185.12 16.7594 185.418 16.4104Z" fill="var(--fill-0, #B5E30F)"/>
<path id="Vector_21" d="M139.225 62.8165C140.263 62.7356 142.046 62.8128 141.822 64.3179L141.621 64.4663C141.129 64.4047 140.578 63.9828 140.144 63.7028C139.692 63.7192 139.435 63.7819 139.263 64.2155C139.764 65.1101 140.757 64.7419 141.441 65.2419C143.033 66.4055 141.597 67.6463 140.274 67.9484C139.237 67.9865 137.97 67.6263 137.956 66.3685L138.122 66.2093C138.764 66.2318 139.368 66.7651 140.194 66.9466C140.543 66.8541 140.639 66.8477 140.894 66.5976C140.769 65.7967 138.564 65.6346 138.127 64.6906C137.722 63.819 138.533 63.1873 139.225 62.8165Z" fill="var(--fill-0, #292D30)"/>
<path id="Vector_22" d="M198.806 8.16021C199.011 8.26034 199.318 8.36119 199.393 8.58827C199.693 9.50198 200.545 11.4829 199.479 12.095C198.936 12.1254 197.903 11.786 197.337 11.6289C196.519 11.4294 195.473 11.3764 195.344 10.4123C195.649 9.62175 197.929 8.61725 198.806 8.16021Z" fill="var(--fill-0, #B5E30F)"/>
<path id="Vector_23" d="M190.754 11.9962C192.307 11.9749 195.564 13.9872 192.356 15.7129C189.827 16.7526 188.555 13.8354 190.754 11.9962Z" fill="var(--fill-0, #B5E30F)"/>
<path id="Vector_24" d="M88.826 1.77308C89.8157 1.82446 91.6093 4.11299 91.2618 5.17869C90.8879 5.56698 90.1477 5.80904 89.628 6.02198C88.9965 6.32428 88.433 6.72946 87.745 6.4262C87.5864 6.22188 87.5115 6.18726 87.465 5.94018C87.3161 5.15007 88.4453 2.33851 88.826 1.77308Z" fill="var(--fill-0, #B5E30F)"/>
<path id="Vector_25" d="M42.009 17.1298C42.4472 17.1404 42.7457 17.3029 43.1389 17.4575C45.4368 18.3608 44.3084 19.7742 43.3017 21.0992C42.3326 21.4503 41.5861 20.7099 40.8959 20.1118C41.0815 18.8486 41.0504 17.9442 42.009 17.1298Z" fill="var(--fill-0, #B5E30F)"/>
<path id="Vector_26" d="M87.7974 9.04634C89.2572 8.81543 89.46 12.4008 86.4269 12.4145C85.789 12.0833 84.9564 11.0999 85.3058 10.3424C85.787 9.29882 86.8222 9.23426 87.7974 9.04634Z" fill="var(--fill-0, #B5E30F)"/>
<path id="Vector_27" d="M38.8776 11.8773C39.4227 11.9889 39.5929 12.1338 40.0608 12.4453C40.6044 13.8183 41.0344 14.6968 39.4063 15.4277C36.608 15.1384 36.5422 13.1703 38.8776 11.8773Z" fill="var(--fill-0, #B5E30F)"/>
<path id="Vector_28" d="M81.0073 61.2199C81.4068 61.2073 81.7152 61.1673 82.0852 61.3296C82.2648 62.1369 82.1571 66.6931 82.1466 67.8307C81.784 67.8383 81.3359 67.8759 81.0693 67.6651C80.9171 66.7366 81.0029 62.4551 81.0073 61.2199Z" fill="var(--fill-0, #292D30)"/>
<path id="Vector_29" d="M192.137 18.887C193.051 18.9111 194.355 20.5167 194.817 21.2697C194.977 21.5303 194.761 21.8276 194.643 22.053C193.981 22.0639 192.905 22.2029 192.319 22.0055C191.541 21.7431 191.857 19.4257 192.137 18.887Z" fill="var(--fill-0, #B5E30F)"/>
<path id="Vector_30" d="M95.4449 11.3137C95.9051 11.2712 95.7561 11.227 96.1078 11.4029C96.4954 12.1238 95.8324 13.5534 95.2219 14.0262C94.7688 14.0893 94.9167 14.0831 94.454 13.8177C93.8102 13.4255 92.9173 13.0775 92.9283 12.2575C93.3809 11.6208 94.6472 11.4905 95.4449 11.3137Z" fill="var(--fill-0, #B5E30F)"/>
<path id="Vector_31" d="M96.0971 0.953995C96.2032 0.998788 96.3869 1.14131 96.4894 1.21437C96.9067 2.01251 97.4481 3.12767 96.6814 3.82855C96.2688 3.97359 95.7788 3.77119 95.3412 3.64531C94.8809 3.55932 94.3742 3.5065 93.9986 3.24001C93.7696 2.86718 93.7971 3.02791 93.8638 2.6371C94.2478 2.06748 95.4771 1.35965 96.0971 0.953995Z" fill="var(--fill-0, #B5E30F)"/>
<path id="Vector_32" d="M89.9882 14.4923C90.7017 14.7342 92.1025 16.5147 92.1303 17.2778C91.9551 17.6676 92.0569 17.5272 91.6602 17.8009C90.8117 17.5693 89.9946 17.7842 89.5022 17.4893C89.0497 16.7756 89.4311 15.084 89.9882 14.4923Z" fill="var(--fill-0, #B5E30F)"/>
<path id="Vector_33" d="M126.459 62.8903C126.855 62.8768 127.326 62.8306 127.633 63.0512C127.758 64.0328 127.681 66.7037 127.673 67.8215C127.28 67.8314 126.824 67.8763 126.512 67.6949C126.389 66.7144 126.456 64.0064 126.459 62.8903Z" fill="var(--fill-0, #292D30)"/>
<path id="Vector_34" d="M191.098 6.20508C191.216 6.224 191.468 6.27778 191.537 6.39718C192.599 8.25264 192.855 9.13078 190.368 8.98538C189.85 8.99556 189.578 9.02502 189.3 8.55732C189.37 7.80015 190.532 6.78511 191.098 6.20508Z" fill="var(--fill-0, #B5E30F)"/>
<path id="Vector_35" d="M82.5424 5.57023C83.2923 5.62388 84.4801 6.23985 84.5501 7.11428C84.4213 7.46748 84.0798 7.62629 83.7578 7.82942C83.4182 8.0686 83.3044 8.14908 82.9203 8.3243C81.9357 8.17423 82.4345 6.35914 82.5424 5.57023Z" fill="var(--fill-0, #B5E30F)"/>
<path id="Vector_36" d="M83.7919 0C84.3616 0.265287 85.3051 0.923773 85.2785 1.61939C85.0104 2.04972 84.9746 1.97259 84.4728 2.25296C84.024 2.5337 83.8299 2.74425 83.3203 2.52939C82.9832 1.93618 83.4214 0.509974 83.7919 0Z" fill="var(--fill-0, #B5E30F)"/>
<path id="Vector_37" d="M127.401 29.7953C128.442 29.9398 128.073 31.2134 127.761 31.8468C127.555 32.267 127.238 32.482 126.873 32.7453L126.75 32.7852L126.586 32.6197C126.162 31.2456 126.313 30.6896 127.401 29.7953Z" fill="var(--fill-0, #B5E30F)"/>
<path id="Vector_38" d="M35.6296 8.69149C36.1641 8.80395 37.5085 9.36291 37.7542 9.86486C37.6624 10.2686 37.7031 10.1419 37.2975 10.4401C36.9795 10.6575 36.7678 10.7717 36.4306 10.9504C35.9763 10.9459 36.1461 11.0071 35.7923 10.7207C35.5344 10.2343 35.5858 9.25272 35.6296 8.69149Z" fill="var(--fill-0, #B5E30F)"/>
<path id="Vector_39" d="M128.411 32.4998C129.04 32.4424 130.139 32.4048 130.126 33.25C129.916 33.6577 129.601 33.8013 129.209 34.0445C128.298 34.1191 128.013 33.9277 127.206 33.5224C127.658 33.0491 127.877 32.8879 128.411 32.4998Z" fill="var(--fill-0, #B5E30F)"/>
<path id="Vector_40" d="M122.427 65.5039L124.007 67.8317L122.541 67.8323C122.076 67.1258 121.565 66.3038 121.084 65.621C121.642 65.6214 121.887 65.6356 122.427 65.5039Z" fill="var(--fill-0, #292D30)"/>
<path id="Vector_41" d="M42.5853 12.2799C43.1384 12.4225 44.5162 13.1408 44.556 13.8025L44.3111 14.0497C43.7338 14.2075 43.1551 14.3604 42.575 14.5082C42.5375 13.7684 42.4628 13.0069 42.5853 12.2799Z" fill="var(--fill-0, #B5E30F)"/>
<path id="Vector_42" d="M45.8906 21.1115C46.2667 21.538 46.2911 22.3976 45.7809 22.7317L45.4005 22.587C44.9801 22.3167 44.9814 22.4063 44.7942 22.0106C44.9583 21.6274 45.5119 21.3514 45.8906 21.1115Z" fill="var(--fill-0, #B5E30F)"/>
<path id="Vector_43" d="M126.71 60.9319C126.928 60.8059 127.199 60.8141 127.408 60.9532C127.619 61.0924 127.734 61.3387 127.705 61.5901C127.677 61.8416 127.509 62.0553 127.272 62.1428C126.947 62.2633 126.583 62.1133 126.437 61.7974C126.29 61.4816 126.408 61.1054 126.71 60.9319Z" fill="var(--fill-0, #292D30)"/>
<path id="Vector_44" d="M91.8064 8.03003C92.0657 7.9632 92.331 8.11483 92.4064 8.37281C92.4818 8.63079 92.34 8.90243 92.0858 8.98674C91.9135 9.04399 91.7239 9.00231 91.5912 8.87799C91.4585 8.75367 91.4039 8.5666 91.4487 8.38994C91.4935 8.2134 91.6307 8.07542 91.8064 8.03003Z" fill="var(--fill-0, #292D30)"/>
</g>
</svg>
