<svg width="317" height="60" viewBox="0 0 317 60" fill="none" xmlns="http://www.w3.org/2000/svg">
  <rect x="0" y="6.52" width="2.536" height="50.15" fill="#4A4E57"/>
  <rect x="5.072" y="6.52" width="2.536" height="50.15" fill="#4A4E57"/>
  <rect x="15.216" y="6.52" width="5.072" height="50.15" fill="#4A4E57"/>
  <rect x="28.178" y="6.52" width="5.072" height="50.15" fill="#4A4E57"/>
  <rect x="35.786" y="6.52" width="7.608" height="50.15" fill="#4A4E57"/>
  <rect x="45.93" y="6.52" width="2.536" height="50.15" fill="#4A4E57"/>
  <rect x="49.312" y="6.52" width="2.536" height="50.15" fill="#4A4E57"/>
  <rect x="54.384" y="6.52" width="2.536" height="50.15" fill="#4A4E57"/>
  <rect x="64.528" y="6.52" width="5.072" height="50.15" fill="#4A4E57"/>
  <rect x="77.489" y="6.52" width="2.536" height="50.15" fill="#4A4E57"/>
  <rect x="87.633" y="6.52" width="5.072" height="50.15" fill="#4A4E57"/>
  <rect x="95.241" y="6.52" width="7.608" height="50.15" fill="#4A4E57"/>
  <rect x="105.667" y="6.52" width="2.536" height="50.15" fill="#4A4E57"/>
  <rect x="110.739" y="6.52" width="2.536" height="50.15" fill="#4A4E57"/>
  <rect x="120.883" y="6.52" width="5.072" height="50.15" fill="#4A4E57"/>
  <rect x="133.845" y="6.52" width="2.536" height="50.15" fill="#4A4E57"/>
  <rect x="138.917" y="6.52" width="5.072" height="50.15" fill="#4A4E57"/>
  <rect x="151.597" y="6.52" width="2.536" height="50.15" fill="#4A4E57"/>
  <rect x="154.978" y="6.52" width="2.536" height="50.15" fill="#4A4E57"/>
  <rect x="160.05" y="6.52" width="2.536" height="50.15" fill="#4A4E57"/>
  <rect x="170.194" y="6.52" width="5.072" height="50.15" fill="#4A4E57"/>
  <rect x="183.155" y="6.52" width="2.536" height="50.15" fill="#4A4E57"/>
  <rect x="188.227" y="6.52" width="5.072" height="50.15" fill="#4A4E57"/>
  <rect x="200.907" y="6.52" width="7.608" height="50.15" fill="#4A4E57"/>
  <rect x="211.333" y="6.52" width="5.072" height="50.15" fill="#4A4E57"/>
  <rect x="224.013" y="6.52" width="2.536" height="50.15" fill="#4A4E57"/>
  <rect x="234.157" y="6.52" width="2.536" height="50.15" fill="#4A4E57"/>
  <rect x="239.511" y="6.52" width="2.536" height="50.15" fill="#4A4E57"/>
  <rect x="249.655" y="6.52" width="7.608" height="50.15" fill="#4A4E57"/>
  <rect x="259.799" y="6.52" width="5.072" height="50.15" fill="#4A4E57"/>
  <rect x="267.688" y="6.52" width="5.072" height="50.15" fill="#4A4E57"/>
  <rect x="275.296" y="6.52" width="7.608" height="50.15" fill="#4A4E57"/>
  <rect x="285.44" y="6.52" width="2.536" height="50.15" fill="#4A4E57"/>
  <rect x="288.822" y="6.52" width="2.536" height="50.15" fill="#4A4E57"/>
  <rect x="293.894" y="6.52" width="5.072" height="50.15" fill="#4A4E57"/>
  <rect x="306.574" y="6.52" width="7.608" height="50.15" fill="#4A4E57"/>
</svg>
