<svg width="75" height="75" viewBox="0 0 75 75" fill="none" xmlns="http://www.w3.org/2000/svg">
<path fill-rule="evenodd" clip-rule="evenodd" d="M41.0811 10.7468C39.951 10.2542 38.7319 10 37.4996 10C36.2673 10 35.0482 10.2542 33.9181 10.7468C32.3611 11.4257 31.2073 12.7032 30.1581 14.1874C29.1181 15.6593 27.9704 17.6527 26.5488 20.1212L11.7335 45.856C10.3858 48.195 9.29041 50.0958 8.57656 51.6602C7.85349 53.234 7.3458 54.8231 7.54272 56.4678C7.83503 58.8808 9.16118 61.0346 11.1581 62.4201C12.5058 63.3551 14.1427 63.6883 15.9058 63.8457C17.6596 64 19.9058 64 22.6904 64H52.3088C55.0934 64 57.3396 64 59.0934 63.8457C60.8565 63.6914 62.4934 63.352 63.8411 62.4201C64.8296 61.7412 65.663 60.8595 66.2863 59.8334C66.9095 58.8072 67.3084 57.6601 67.4565 56.4678C67.6565 54.8231 67.1426 53.237 66.4226 51.6602C65.7088 50.0958 64.6134 48.195 63.2657 45.8529L48.4503 20.1181C47.0288 17.6527 45.8811 15.6593 44.8411 14.1874C43.795 12.7063 42.638 11.4288 41.0811 10.7468ZM33.6719 28.9772C33.4565 26.6629 35.235 24.6572 37.4996 24.6572C39.7642 24.6572 41.5396 26.6598 41.3273 28.9772L39.8073 41.7829C39.7612 42.3669 39.4988 42.9125 39.0717 43.3123C38.6446 43.7121 38.0838 43.937 37.4996 43.9429C36.9154 43.937 36.3546 43.7121 35.9275 43.3123C35.5004 42.9125 35.238 42.3669 35.1919 41.7829L33.6719 28.9772ZM41.3457 51.6572C41.3457 52.6801 40.9405 53.6612 40.2192 54.3846C39.4979 55.1079 38.5197 55.5143 37.4996 55.5143C36.4795 55.5143 35.5012 55.1079 34.78 54.3846C34.0587 53.6612 33.6534 52.6801 33.6534 51.6572C33.6534 50.6342 34.0587 49.6531 34.78 48.9298C35.5012 48.2064 36.4795 47.8 37.4996 47.8C38.5197 47.8 39.4979 48.2064 40.2192 48.9298C40.9405 49.6531 41.3457 50.6342 41.3457 51.6572Z" fill="#FF3336"/>
</svg>
